# Blender v2.75 (sub 0) OBJ File: ''
# www.blender.org
o Cube
v 1.000000 -1.000000 -1.000000
v 1.000000 -1.000000 1.000000
v -1.000000 -1.000000 1.000000
v -1.000000 -1.000000 -1.000000
v 1.000000 1.000000 -0.999999
v 0.999999 1.000000 1.000001
v -1.000000 1.000000 1.000000
v -1.000000 1.000000 -1.000000
v 1.000000 3.331965 -0.999999
v 0.999999 3.331965 1.000001
v -1.000000 3.331965 -1.000000
v -1.000000 3.331965 1.000000
v 0.999998 -0.932060 3.753713
v -1.000002 -0.932060 3.753712
v 0.999998 1.399905 3.753713
v -1.000002 1.399905 3.753712
v 0.668460 5.530742 1.246259
v -1.246259 5.530742 0.668460
v 1.246258 5.530742 -0.668460
v -0.668460 5.530742 -1.246259
v -0.580449 3.331965 2.173914
v -2.580449 3.331965 2.173913
v -2.826708 5.530742 1.842374
v -2.248909 5.530742 -0.072345
v 3.171189 3.331965 -2.612699
v 1.171189 3.331965 -2.612700
v 2.839649 5.530742 -0.366441
v 3.417447 5.530742 -2.281160
vn 0.000000 -1.000000 0.000000
vn -1.000000 0.000000 -0.000000
vn 1.000000 0.000000 0.000000
vn -0.000000 0.000000 1.000000
vn 0.000000 0.000000 -1.000000
vn -0.000000 0.818600 0.574400
vn 0.000000 -0.818600 -0.574400
vn 0.000000 1.000000 0.000000
vn -0.481600 -0.589700 -0.648300
vn 0.988800 0.149100 0.000000
vn -0.988800 0.149100 -0.000000
vn -0.000000 0.149100 0.988800
vn 0.481600 0.589700 0.648300
vn 0.000000 0.149100 -0.988800
vn 0.481600 -0.589700 0.648300
vn -0.481600 0.589700 -0.648300
vn -0.285700 -0.149100 0.946700
vn 0.285700 -0.149100 -0.946700
vn -0.946700 -0.149100 -0.285700
vn 0.946700 -0.149100 0.285700
s off
f 2//1 3//1 4//1
f 7//2 12//2 11//2
f 5//3 6//3 2//3
f 6//4 7//4 3//4
f 3//2 7//2 8//2
f 1//5 4//5 8//5
f 9//1 11//1 26//1
f 8//5 11//5 9//5
f 7//2 14//2 16//2
f 5//3 9//3 10//3
f 13//4 15//4 16//4
f 12//6 16//6 15//6
f 6//7 13//7 14//7
f 6//3 10//3 15//3
f 19//8 20//8 18//8
f 12//9 22//9 24//9
f 10//10 9//10 17//10
f 11//11 12//11 20//11
f 22//12 21//12 23//12
f 12//1 10//1 21//1
f 18//13 23//13 21//13
f 18//8 20//8 24//8
f 25//14 26//14 28//14
f 9//15 25//15 27//15
f 19//8 17//8 27//8
f 19//16 28//16 26//16
f 1//1 2//1 4//1
f 8//2 7//2 11//2
f 1//3 5//3 2//3
f 2//4 6//4 3//4
f 4//2 3//2 8//2
f 5//5 1//5 8//5
f 25//1 9//1 26//1
f 5//5 8//5 9//5
f 12//2 7//2 16//2
f 6//3 5//3 10//3
f 14//4 13//4 16//4
f 10//6 12//6 15//6
f 7//7 6//7 14//7
f 13//3 6//3 15//3
f 17//8 19//8 18//8
f 20//9 12//9 24//9
f 18//17 10//17 17//17
f 19//18 11//18 20//18
f 24//19 22//19 23//19
f 22//1 12//1 21//1
f 10//13 18//13 21//13
f 23//8 18//8 24//8
f 27//20 25//20 28//20
f 17//15 9//15 27//15
f 28//8 19//8 27//8
f 11//16 19//16 26//16
